<svg xmlns="http://www.w3.org/2000/svg" viewBox="0 0 99.91 155.73"><defs><style>.cls-1{fill:#07beb8;}</style></defs><title>Icon</title><g id="Layer_2" data-name="Layer 2"><g id="Layer_5" data-name="Layer 5"><g id="Layer_2-2" data-name="Layer 2"><path class="cls-1" d="M23.17,136.33H58.73a15,15,0,0,1,6.28,1,4.94,4.94,0,0,1,2.62,3.07,24,24,0,0,1,0,11.11,4.53,4.53,0,0,1-2.23,2.91,14.74,14.74,0,0,1-6.8,1.31H11.53q-9.15,0-10.72-5A20.62,20.62,0,0,1,0,144.08V71.43a39.84,39.84,0,0,1,.19-4.5,10.47,10.47,0,0,1,1.25-3.47q1.83-3.54,10.17-3.53,9.15,0,10.85,4.83a26,26,0,0,1,.66,6.8Z"/><path class="cls-1" d="M76.78,71.35A37.71,37.71,0,0,1,77,66.84a10.55,10.55,0,0,1,1.25-3.47q1.83-3.52,10.17-3.53,9.15,0,10.85,4.84a25.49,25.49,0,0,1,.65,6.8v72.64a36.86,36.86,0,0,1-.2,4.58,10.68,10.68,0,0,1-1.23,3.4q-1.83,3.53-10.17,3.53-9.17,0-10.73-5a20.58,20.58,0,0,1-.78-6.67Z"/><polygon class="cls-1" points="49.9 4.06 72.59 28.04 95.29 52.01 49.9 52.01 4.51 52.01 27.21 28.04 49.9 4.06"/><path class="cls-1" d="M95.29,56.12H4.51A4.1,4.1,0,0,1,.39,52a4,4,0,0,1,1.13-2.84L46.91,1.23a4.25,4.25,0,0,1,6,0l45.39,48a4.1,4.1,0,0,1-3,6.94ZM14,47.94H85.67L49.86,10.17Z"/></g></g></g></svg>