<svg xmlns="http://www.w3.org/2000/svg" viewBox="0 0 366.21 108.24"><title>Kotlife_Logo</title><g id="Laag_2" data-name="Laag 2"><g id="Laag_1-2" data-name="Laag 1"><path d="M28.26,74Q42,87.27,47.79,93.93c2,2.22,3,4.1,3,5.62s-1.2,3.33-3.6,5.41-4.37,3.1-5.89,3.1-3.38-1.26-5.54-3.78L15.93,81.69V99.24a25.73,25.73,0,0,1-.14,3.15,7,7,0,0,1-.85,2.34q-1.26,2.43-7,2.43-6.3,0-7.38-3.42A14.15,14.15,0,0,1,0,99.15v-50A26.29,26.29,0,0,1,.13,46,7.49,7.49,0,0,1,1,43.62q1.26-2.43,7-2.43,6.3,0,7.47,3.33a17.9,17.9,0,0,1,.45,4.68V66.39Q28.17,52.62,35.73,43.8q3.15-3.69,5.49-3.69t5.94,3.11c2.4,2.07,3.6,3.86,3.6,5.4s-.9,3.34-2.7,5.44q-5.22,6-16.2,16.56Z"/><path d="M82.17,40.38A31.93,31.93,0,0,1,105.3,50a32.15,32.15,0,0,1,9.81,23.9,34.34,34.34,0,0,1-9.36,24.3,30.26,30.26,0,0,1-23,10,31.19,31.19,0,0,1-23.27-9.9,32.73,32.73,0,0,1-9.58-23.58,36.21,36.21,0,0,1,2.7-14,32.47,32.47,0,0,1,7.2-10.94A33.7,33.7,0,0,1,70.11,42.9,30.19,30.19,0,0,1,82.17,40.38ZM65.79,74.31q0,8,5.17,13a16,16,0,0,0,23.09.13q5.13-4.86,5.13-13T94,61.26a16.34,16.34,0,0,0-11.56-4.95,16.12,16.12,0,0,0-11.52,5Q65.79,66.29,65.79,74.31Z"/><path d="M119.88,41.1h50a9.94,9.94,0,0,1,4.23.68,3.4,3.4,0,0,1,1.8,2.11,13,13,0,0,1,.45,3.78,12.57,12.57,0,0,1-.45,3.74,3.08,3.08,0,0,1-1.53,1.93,10.48,10.48,0,0,1-4.59.81H152.64V99.42a24.71,24.71,0,0,1-.14,3.06,7.33,7.33,0,0,1-.81,2.3,3.8,3.8,0,0,1-2.38,1.84,15.34,15.34,0,0,1-4.5.54,14.91,14.91,0,0,1-4.46-.54,3.79,3.79,0,0,1-2.34-1.84,7.26,7.26,0,0,1-.81-2.34,26.48,26.48,0,0,1-.13-3.11V54.15H119.79a10,10,0,0,1-4.23-.67,3.42,3.42,0,0,1-1.8-2.12,13,13,0,0,1-.45-3.78,12.5,12.5,0,0,1,.45-3.73,3.1,3.1,0,0,1,1.53-1.94A10.48,10.48,0,0,1,119.88,41.1Z"/><path d="M197.28,93.84h24.48a10.23,10.23,0,0,1,4.32.68,3.38,3.38,0,0,1,1.8,2.11,16.48,16.48,0,0,1,0,7.65,3.1,3.1,0,0,1-1.53,2,10.14,10.14,0,0,1-4.68.9h-32.4q-6.3,0-7.38-3.42a14.15,14.15,0,0,1-.54-4.59v-50a26.29,26.29,0,0,1,.13-3.1,7.26,7.26,0,0,1,.86-2.39q1.26-2.43,7-2.43,6.3,0,7.47,3.33a17.9,17.9,0,0,1,.45,4.68Z"/><path d="M234.18,49.11a26.29,26.29,0,0,1,.13-3.1,7.26,7.26,0,0,1,.86-2.39q1.26-2.43,7-2.43,6.3,0,7.47,3.33a17.9,17.9,0,0,1,.45,4.68v50a25.73,25.73,0,0,1-.14,3.15,7.23,7.23,0,0,1-.85,2.34q-1.26,2.43-7,2.43-6.3,0-7.38-3.42a14.15,14.15,0,0,1-.54-4.59Z"/><path d="M301,41.19a25.82,25.82,0,0,1,3.1.14,6.77,6.77,0,0,1,2.34.85,4,4,0,0,1,1.85,2.43,15.73,15.73,0,0,1,.54,4.59,15.73,15.73,0,0,1-.54,4.59,3.81,3.81,0,0,1-1.89,2.39A8,8,0,0,1,304,57a27.36,27.36,0,0,1-3.19.13H273.24v9.09H291a26.85,26.85,0,0,1,3.19.14,7.21,7.21,0,0,1,2.39.85q2.34,1.35,2.34,7.11,0,6.3-3.42,7.47a16.82,16.82,0,0,1-4.59.45H273.24v17a25.73,25.73,0,0,1-.14,3.15,7.23,7.23,0,0,1-.85,2.34q-1.26,2.43-7,2.43-6.3,0-7.38-3.42a14.15,14.15,0,0,1-.54-4.59v-50c0-3.06.57-5.14,1.71-6.26s3.3-1.66,6.48-1.66Z"/><path d="M330.57,91.23h27.72a25.82,25.82,0,0,1,3.1.14,7.21,7.21,0,0,1,2.39.85q2.43,1.26,2.43,7c0,4.2-1.12,6.66-3.33,7.38a15,15,0,0,1-4.68.54H322.56q-6.3,0-7.38-3.42a14.15,14.15,0,0,1-.54-4.59v-50c0-3.06.57-5.14,1.71-6.26s3.3-1.66,6.48-1.66h35.46a25.82,25.82,0,0,1,3.1.14,7.21,7.21,0,0,1,2.39.85q2.43,1.26,2.43,7c0,4.2-1.12,6.66-3.33,7.38a15,15,0,0,1-4.68.54H330.57v9.09h17.82a25.82,25.82,0,0,1,3.1.14,7.21,7.21,0,0,1,2.39.85q2.43,1.26,2.43,7,0,6.3-3.42,7.38a15,15,0,0,1-4.68.54H330.57Z"/><polygon points="215.68 2.8 231.3 19.3 246.92 35.8 215.68 35.8 184.44 35.8 200.06 19.3 215.68 2.8"/><path d="M246.92,38.63H184.44a2.83,2.83,0,0,1-2.06-4.78l31.24-33a2.93,2.93,0,0,1,4.12,0l31.24,33a2.83,2.83,0,0,1-2.06,4.78ZM191,33h49.3l-24.65-26Z"/></g></g></svg>