<svg xmlns="http://www.w3.org/2000/svg" viewBox="0 0 532.08 157.2"><defs><style>.cls-1{fill:#272727;}.cls-2{fill:#07beb8;}</style></defs><title>KotLife_Logo</title><g id="Laag_2" data-name="Laag 2"><g id="Layer_5" data-name="Layer 5"><g id="Layer_2" data-name="Layer 2"><g id="Laag_2-2" data-name="Laag 2"><g id="Laag_1-2" data-name="Laag 1-2"><path class="cls-1" d="M41.08,107.51q20,19.27,28.37,29c2.91,3.22,4.36,5.95,4.36,8.16s-1.74,4.84-5.23,7.86S62.23,157,60,157s-4.91-1.83-8.05-5.49L23.16,118.68v25.5a36.86,36.86,0,0,1-.2,4.58,10.36,10.36,0,0,1-1.23,3.4q-1.85,3.53-10.18,3.53-9.15,0-10.72-5A20.63,20.63,0,0,1,0,144.05V71.4a36.77,36.77,0,0,1,.19-4.57,10.9,10.9,0,0,1,1.26-3.46q1.83-3.52,10.17-3.53,9.15,0,10.86,4.84a26.34,26.34,0,0,1,.65,6.8v25q17.79-20,28.78-32.82,4.57-5.35,8-5.36t8.63,4.52c3.48,3,5.23,5.61,5.23,7.84s-1.31,4.86-3.93,7.91q-7.57,8.71-23.53,24.06Z"/><path class="cls-1" d="M119.4,58.66a46.42,46.42,0,0,1,33.61,14,46.71,46.71,0,0,1,14.25,34.72,49.91,49.91,0,0,1-13.6,35.31,43.94,43.94,0,0,1-33.41,14.53,45.3,45.3,0,0,1-33.81-14.39,47.56,47.56,0,0,1-13.92-34.25,52.58,52.58,0,0,1,3.92-20.35A47.15,47.15,0,0,1,86.9,72.32a49,49,0,0,1,15-10A44,44,0,0,1,119.4,58.66ZM95.6,108q0,11.63,7.52,18.89a23.24,23.24,0,0,0,32.86.86c.23-.22.46-.44.68-.67q7.46-7.07,7.46-18.89T136.59,89a23.73,23.73,0,0,0-16.79-7.19,23.43,23.43,0,0,0-16.74,7.26Q95.61,96.32,95.6,108Z"/><path class="cls-1" d="M174.19,59.71h72.65a14.33,14.33,0,0,1,6.14,1,5,5,0,0,1,2.62,3.06,19.2,19.2,0,0,1,.65,5.49,18.15,18.15,0,0,1-.65,5.44,4.47,4.47,0,0,1-2.23,2.8,15.2,15.2,0,0,1-6.66,1.18H221.79v65.77a38.88,38.88,0,0,1-.2,4.45,11,11,0,0,1-1.18,3.34A5.54,5.54,0,0,1,217,154.9a22.21,22.21,0,0,1-6.54.79,21.85,21.85,0,0,1-6.48-.79,5.49,5.49,0,0,1-3.4-2.67,10.56,10.56,0,0,1-1.17-3.4,35.89,35.89,0,0,1-.19-4.52V78.67H174.06a14.62,14.62,0,0,1-6.14-1,5,5,0,0,1-2.62-3.08,18.55,18.55,0,0,1-.65-5.5,18.06,18.06,0,0,1,.65-5.42,4.5,4.5,0,0,1,2.22-2.81A15.27,15.27,0,0,1,174.19,59.71Z"/><path class="cls-2" d="M286.65,136.33h35.56a15,15,0,0,1,6.28,1,4.9,4.9,0,0,1,2.61,3.07,23.71,23.71,0,0,1,0,11.11,4.48,4.48,0,0,1-2.22,2.91,14.74,14.74,0,0,1-6.8,1.31H275q-9.15,0-10.72-5a20.62,20.62,0,0,1-.79-6.67V71.43a39.84,39.84,0,0,1,.19-4.5,10.47,10.47,0,0,1,1.25-3.47q1.83-3.54,10.17-3.53,9.15,0,10.85,4.83a26,26,0,0,1,.66,6.8Z"/><path class="cls-2" d="M340.26,71.35a35.74,35.74,0,0,1,.19-4.51,10.55,10.55,0,0,1,1.25-3.47q1.83-3.52,10.17-3.53,9.15,0,10.85,4.84a25.49,25.49,0,0,1,.65,6.8v72.64a36.86,36.86,0,0,1-.2,4.58,10.47,10.47,0,0,1-1.24,3.4q-1.83,3.53-10.17,3.53-9.15,0-10.72-5a20.58,20.58,0,0,1-.78-6.67Z"/><path class="cls-1" d="M437.34,59.84a37.55,37.55,0,0,1,4.5.2,9.8,9.8,0,0,1,3.4,1.24,5.77,5.77,0,0,1,2.69,3.53,23.08,23.08,0,0,1,.79,6.67,23.13,23.13,0,0,1-.79,6.67,5.55,5.55,0,0,1-2.74,3.47,11.73,11.73,0,0,1-3.49,1.19,39.91,39.91,0,0,1-4.64.19H397V96.21h25.8a37.83,37.83,0,0,1,4.64.2,10.51,10.51,0,0,1,3.47,1.23q3.39,2,3.4,10.33c0,6.11-1.66,9.72-5,10.86a24.54,24.54,0,0,1-6.67.65H397v24.7a36.86,36.86,0,0,1-.21,4.58,10.68,10.68,0,0,1-1.23,3.4q-1.83,3.53-10.17,3.53-9.15,0-10.72-5a20.62,20.62,0,0,1-.79-6.67V71.4c0-4.44.83-7.46,2.49-9.09s4.79-2.41,9.41-2.41Z"/><path class="cls-1" d="M480.3,132.54h40.28a37.66,37.66,0,0,1,4.5.21,10.43,10.43,0,0,1,3.47,1.23q3.54,1.83,3.53,10.17c0,6.1-1.62,9.68-4.83,10.72a21.73,21.73,0,0,1-6.8.79H468.66q-9.15,0-10.72-5a20.61,20.61,0,0,1-.78-6.67V71.38c0-4.45.83-7.47,2.48-9.1s4.8-2.41,9.42-2.41h51.52a37.64,37.64,0,0,1,4.5.2,10.45,10.45,0,0,1,3.47,1.24q3.54,1.83,3.53,10.17c0,6.1-1.62,9.67-4.83,10.72a21.73,21.73,0,0,1-6.8.78H480.3V96.19h25.89a39.93,39.93,0,0,1,4.51.2,10.76,10.76,0,0,1,3.47,1.24q3.52,1.83,3.53,10.17,0,9.15-5,10.72a22,22,0,0,1-6.8.79H480.3Z"/><polygon class="cls-2" points="313.38 4.06 336.07 28.04 358.77 52.01 313.38 52.01 267.99 52.01 290.69 28.04 313.38 4.06"/><path class="cls-2" d="M358.77,56.12H268a4.1,4.1,0,0,1-4.12-4.1A4,4,0,0,1,265,49.18L310.39,1.23a4.25,4.25,0,0,1,6,0l45.39,48a4.11,4.11,0,0,1-3,6.94Zm-81.25-8.18h71.63L313.34,10.17Z"/></g></g></g></g></g></svg>